<svg width="323" height="297" viewBox="0 0 323 297" fill="none" xmlns="http://www.w3.org/2000/svg">
<path d="M33.4765 35.4789C56.7324 -14.0314 139.311 -7.05135 171.179 27.7741C203.048 62.5996 213.401 84.9143 242.146 71.9203C270.891 58.9263 307.549 62.3914 309.657 103.714C311.764 145.036 278.113 193.872 224.621 208.324C171.129 222.775 171.179 273.926 100.429 263.598C61.855 257.967 60.9721 216.237 66.4195 181.719C71.867 147.202 6.50569 92.9106 33.4765 35.4789Z" fill="#0C4A6E"/>
<path opacity="0.9" d="M33.4765 35.4789C56.7324 -14.0314 139.311 -7.05135 171.179 27.7741C203.048 62.5996 213.401 84.9143 242.146 71.9203C270.891 58.9263 307.549 62.3914 309.657 103.714C311.764 145.036 278.113 193.872 224.621 208.324C171.129 222.775 171.179 273.926 100.429 263.598C61.855 257.967 60.9721 216.237 66.4195 181.719C71.867 147.202 6.50569 92.9106 33.4765 35.4789Z" fill="white"/>
<path d="M161.5 296.549C250.694 296.549 323 292.328 323 287.12C323 281.913 250.694 277.691 161.5 277.691C72.306 277.691 0 281.913 0 287.12C0 292.328 72.306 296.549 161.5 296.549Z" fill="#F5F5F5"/>
<path d="M249.043 74.6524H55.9575V216.553H249.043V74.6524Z" fill="#0C4A6E"/>
<path opacity="0.7" d="M249.043 74.6524H55.9575V216.553H249.043V74.6524Z" fill="white"/>
<path d="M249.043 74.6524H55.9575V83.34H249.043V74.6524Z" fill="#0C4A6E"/>
<path opacity="0.7" d="M243.704 81.3409C244.996 81.3409 246.044 80.293 246.044 79.0004C246.044 77.7077 244.996 76.6598 243.704 76.6598C242.411 76.6598 241.363 77.7077 241.363 79.0004C241.363 80.293 242.411 81.3409 243.704 81.3409Z" fill="white"/>
<path opacity="0.7" d="M236.873 81.3409C238.166 81.3409 239.214 80.293 239.214 79.0004C239.214 77.7077 238.166 76.6598 236.873 76.6598C235.581 76.6598 234.533 77.7077 234.533 79.0004C234.533 80.293 235.581 81.3409 236.873 81.3409Z" fill="white"/>
<path opacity="0.7" d="M230.043 81.3409C231.336 81.3409 232.384 80.293 232.384 79.0004C232.384 77.7077 231.336 76.6598 230.043 76.6598C228.751 76.6598 227.703 77.7077 227.703 79.0004C227.703 80.293 228.751 81.3409 230.043 81.3409Z" fill="white"/>
<path opacity="0.1" d="M116.929 85.9471H57.5815V212.847H116.929V85.9471Z" fill="black"/>
<path opacity="0.1" d="M118.586 212.855L247.826 212.855L247.826 85.9555L118.586 85.9555L118.586 212.855Z" fill="black"/>
<path opacity="0.2" d="M222.43 95.5093H144.583V150.992H222.43V95.5093Z" fill="black"/>
<path d="M219.148 91.4029H141.301V146.885H219.148V91.4029Z" fill="#0C4A6E"/>
<path opacity="0.5" d="M219.157 91.4029H141.301V146.885H219.157V91.4029Z" fill="white"/>
<path opacity="0.7" d="M217.999 101.59H142.451V145.728H217.999V101.59Z" fill="white"/>
<path d="M219.148 91.4029H141.301V100.091H219.148V91.4029Z" fill="#0C4A6E"/>
<path opacity="0.7" d="M213.818 98.0915C215.11 98.0915 216.158 97.0436 216.158 95.7509C216.158 94.4582 215.11 93.4103 213.818 93.4103C212.525 93.4103 211.477 94.4582 211.477 95.7509C211.477 97.0436 212.525 98.0915 213.818 98.0915Z" fill="white"/>
<path opacity="0.7" d="M206.988 98.0915C208.28 98.0915 209.328 97.0436 209.328 95.7509C209.328 94.4582 208.28 93.4103 206.988 93.4103C205.695 93.4103 204.647 94.4582 204.647 95.7509C204.647 97.0436 205.695 98.0915 206.988 98.0915Z" fill="white"/>
<path opacity="0.7" d="M202.49 95.7509C202.49 96.2138 202.352 96.6664 202.095 97.0513C201.838 97.4362 201.473 97.7362 201.045 97.9133C200.617 98.0905 200.147 98.1368 199.693 98.0465C199.239 97.9562 198.821 97.7333 198.494 97.406C198.167 97.0786 197.944 96.6616 197.854 96.2075C197.763 95.7535 197.81 95.2829 197.987 94.8552C198.164 94.4275 198.464 94.062 198.849 93.8048C199.234 93.5476 199.686 93.4103 200.149 93.4103C200.457 93.4092 200.762 93.469 201.046 93.5863C201.331 93.7035 201.589 93.8758 201.807 94.0934C202.024 94.311 202.197 94.5694 202.314 94.8539C202.431 95.1384 202.491 95.4432 202.49 95.7509Z" fill="white"/>
<path opacity="0.2" d="M142.451 134.733L163.907 121.847L179.558 130.393L203.531 115.259L217.999 126.045V145.728H142.451V134.733Z" fill="#0C4A6E"/>
<path d="M164.34 113.326C164.34 114.479 163.998 115.607 163.358 116.565C162.717 117.524 161.807 118.272 160.741 118.713C159.676 119.154 158.503 119.27 157.372 119.045C156.241 118.82 155.202 118.264 154.387 117.449C153.572 116.634 153.016 115.595 152.791 114.464C152.566 113.333 152.682 112.16 153.123 111.095C153.564 110.029 154.312 109.119 155.271 108.478C156.229 107.837 157.357 107.495 158.51 107.495C160.056 107.495 161.539 108.11 162.633 109.203C163.726 110.297 164.34 111.78 164.34 113.326Z" fill="white"/>
<path opacity="0.2" d="M149.564 139.889H141.301V146.885H149.564V139.889Z" fill="black"/>
<path opacity="0.2" d="M233.508 177.163H155.661V216.337H233.508V177.163Z" fill="black"/>
<path d="M237.523 179.112H159.676V234.595H237.523V179.112Z" fill="#0C4A6E"/>
<path opacity="0.5" d="M237.523 179.112H159.676V234.595H237.523V179.112Z" fill="white"/>
<path opacity="0.7" d="M236.374 189.299H160.825V233.437H236.374V189.299Z" fill="white"/>
<path d="M194.585 195.488L188.596 213.546H185.039L180.574 200.219L176.035 213.546H172.453L166.498 195.488H169.979L174.469 209.207L179.142 195.488H182.232L186.796 209.29L191.419 195.488H194.585Z" fill="#263238"/>
<path d="M237.523 179.112H159.676V187.8H237.523V179.112Z" fill="#0C4A6E"/>
<path opacity="0.7" d="M234.533 183.46C234.533 183.923 234.395 184.376 234.138 184.761C233.881 185.145 233.516 185.445 233.088 185.623C232.66 185.8 232.19 185.846 231.736 185.756C231.282 185.665 230.864 185.443 230.537 185.115C230.21 184.788 229.987 184.371 229.897 183.917C229.806 183.463 229.853 182.992 230.03 182.564C230.207 182.137 230.507 181.771 230.892 181.514C231.277 181.257 231.729 181.12 232.192 181.12C232.813 181.12 233.408 181.366 233.847 181.805C234.286 182.244 234.533 182.839 234.533 183.46Z" fill="white"/>
<path opacity="0.7" d="M227.694 183.46C227.694 183.923 227.557 184.376 227.3 184.761C227.042 185.145 226.677 185.445 226.249 185.623C225.822 185.8 225.351 185.846 224.897 185.756C224.443 185.665 224.026 185.443 223.698 185.115C223.371 184.788 223.148 184.371 223.058 183.917C222.968 183.463 223.014 182.992 223.191 182.564C223.368 182.137 223.668 181.771 224.053 181.514C224.438 181.257 224.891 181.12 225.354 181.12C225.974 181.12 226.57 181.366 227.009 181.805C227.448 182.244 227.694 182.839 227.694 183.46Z" fill="white"/>
<path opacity="0.7" d="M220.864 183.46C220.864 183.923 220.727 184.376 220.47 184.761C220.212 185.145 219.847 185.445 219.419 185.623C218.991 185.8 218.521 185.846 218.067 185.756C217.613 185.665 217.196 185.443 216.868 185.115C216.541 184.788 216.318 184.371 216.228 183.917C216.138 183.463 216.184 182.992 216.361 182.564C216.538 182.137 216.838 181.771 217.223 181.514C217.608 181.257 218.061 181.12 218.523 181.12C219.144 181.12 219.74 181.366 220.178 181.805C220.617 182.244 220.864 182.839 220.864 183.46Z" fill="white"/>
<path d="M230.734 195.904H198.141V196.737H230.734V195.904Z" fill="#263238"/>
<path d="M230.734 200.194H198.141V201.027H230.734V200.194Z" fill="#263238"/>
<path d="M230.734 204.484H198.141V205.317H230.734V204.484Z" fill="#263238"/>
<path d="M230.734 208.773H198.141V209.606H230.734V208.773Z" fill="#263238"/>
<path d="M230.734 213.071H198.141V213.904H230.734V213.071Z" fill="#263238"/>
<path d="M230.726 217.361H166.464V218.194H230.726V217.361Z" fill="#263238"/>
<path d="M230.726 221.651H166.464V222.484H230.726V221.651Z" fill="#263238"/>
<path d="M230.726 225.94H166.464V226.773H230.726V225.94Z" fill="#263238"/>
<path opacity="0.2" d="M145.074 147.718H67.2273V203.201H145.074V147.718Z" fill="black"/>
<path d="M148.415 141.879H70.5674V197.362H148.415V141.879Z" fill="#0C4A6E"/>
<path opacity="0.5" d="M148.415 141.879H70.5674V197.362H148.415V141.879Z" fill="white"/>
<path opacity="0.7" d="M147.265 152.066H71.717V196.204H147.265V152.066Z" fill="white"/>
<path d="M100.811 169.275L88.8003 173.765L100.811 178.254V181.869L84.7688 175.647V171.882L100.811 165.66V169.275Z" fill="#263238"/>
<path d="M113.472 156.639H117.354L105.884 189.466H101.994L113.472 156.639Z" fill="#263238"/>
<path d="M134.246 171.882V175.647L118.187 181.869V178.254L130.198 173.765L118.187 169.275V165.66L134.246 171.882Z" fill="#263238"/>
<path d="M148.415 141.879H70.5674V150.567H148.415V141.879Z" fill="#0C4A6E"/>
<path opacity="0.7" d="M145.416 146.227C145.416 146.691 145.278 147.144 145.021 147.529C144.763 147.914 144.397 148.214 143.969 148.391C143.541 148.568 143.07 148.613 142.616 148.522C142.161 148.431 141.744 148.208 141.417 147.88C141.09 147.551 140.868 147.134 140.779 146.679C140.689 146.224 140.737 145.754 140.915 145.326C141.094 144.898 141.395 144.533 141.781 144.277C142.167 144.021 142.62 143.885 143.084 143.887C143.391 143.887 143.694 143.947 143.978 144.065C144.261 144.183 144.519 144.355 144.736 144.573C144.952 144.79 145.124 145.048 145.241 145.332C145.357 145.616 145.417 145.92 145.416 146.227Z" fill="white"/>
<path opacity="0.7" d="M138.586 146.227C138.586 146.69 138.448 147.143 138.191 147.528C137.934 147.913 137.569 148.213 137.141 148.39C136.713 148.567 136.243 148.613 135.788 148.523C135.334 148.433 134.917 148.21 134.59 147.883C134.263 147.555 134.04 147.138 133.95 146.684C133.859 146.23 133.906 145.759 134.083 145.332C134.26 144.904 134.56 144.539 134.945 144.281C135.33 144.024 135.782 143.887 136.245 143.887C136.866 143.887 137.461 144.133 137.9 144.572C138.339 145.011 138.586 145.607 138.586 146.227Z" fill="white"/>
<path opacity="0.7" d="M131.756 146.227C131.756 146.69 131.618 147.143 131.361 147.528C131.104 147.913 130.738 148.213 130.311 148.39C129.883 148.567 129.412 148.613 128.958 148.523C128.504 148.433 128.087 148.21 127.76 147.883C127.433 147.555 127.21 147.138 127.119 146.684C127.029 146.23 127.075 145.759 127.253 145.332C127.43 144.904 127.73 144.539 128.115 144.281C128.5 144.024 128.952 143.887 129.415 143.887C130.036 143.887 130.631 144.133 131.07 144.572C131.509 145.011 131.756 145.607 131.756 146.227Z" fill="white"/>
<path d="M232.301 90.9948C232.517 91.4612 232.451 91.9527 232.143 92.0943C231.834 92.2359 231.426 91.9693 231.21 91.5112C230.993 91.0531 231.06 90.5616 231.368 90.42C231.676 90.2784 232.101 90.5367 232.301 90.9948Z" fill="#263238"/>
<path d="M232.509 91.9277C232.616 93.6025 232.493 95.2841 232.142 96.9254C232.564 97.004 232.998 96.9896 233.414 96.8831C233.83 96.7767 234.217 96.5807 234.55 96.309L232.509 91.9277Z" fill="#DE5753"/>
<path d="M232.817 87.638C232.863 87.6029 232.898 87.5553 232.918 87.5008C232.937 87.4463 232.941 87.3873 232.927 87.331C232.914 87.2746 232.885 87.2232 232.843 87.1831C232.801 87.143 232.749 87.1159 232.692 87.1049C232.227 87.0049 231.744 87.0178 231.285 87.1424C230.826 87.267 230.403 87.4998 230.052 87.8213C229.996 87.8787 229.966 87.9557 229.968 88.0354C229.969 88.115 230.003 88.1908 230.06 88.2461C230.117 88.3013 230.194 88.3314 230.274 88.3299C230.354 88.3283 230.43 88.2952 230.485 88.2377C230.767 87.9879 231.104 87.8086 231.469 87.7144C231.834 87.6203 232.216 87.6141 232.584 87.6963C232.625 87.7037 232.666 87.7024 232.707 87.6923C232.747 87.6823 232.785 87.6638 232.817 87.638Z" fill="#263238"/>
<path d="M246.836 86.5968C249.076 90.7615 253.766 97.8666 258.23 98.1914C258.23 98.1914 260.238 102.623 253.599 108.087C246.303 114.101 247.127 107.337 247.127 107.337C250.326 103.106 247.793 100.232 244.812 98.0248L246.836 86.5968Z" fill="#E4897B"/>
<path d="M247.294 82.8486C249.593 88.6792 251.242 92.011 249.726 96.2424C247.46 102.639 239.239 103.314 235.241 98.2748C231.634 93.7435 228.478 84.9476 232.984 80.0999C233.971 79.0244 235.218 78.2194 236.604 77.7614C237.991 77.3034 239.471 77.2076 240.905 77.483C242.339 77.7585 243.679 78.396 244.797 79.3352C245.915 80.2743 246.775 81.4837 247.294 82.8486Z" fill="#E4897B"/>
<path d="M250.925 92.4275C249.734 95.1512 239.264 96.7754 236.349 89.6204C236.349 89.6204 230.91 88.2877 228.411 84.2229C225.912 80.1581 227.453 76.7264 230.851 75.527C233.842 74.4275 234.766 75.8268 234.766 75.8268C234.766 75.8268 247.402 68.5969 248.418 75.1521C256.964 76.8097 252.425 89.0374 250.925 92.4275Z" fill="#263238"/>
<path d="M239.139 89.1623C239.703 90.6182 239.773 92.2189 239.339 93.7185C238.739 95.6843 237.032 95.4427 236.007 93.8768C235.091 92.4691 234.3 89.7121 235.466 88.2627C236.632 86.8134 238.439 87.4214 239.139 89.1623Z" fill="#E4897B"/>
<path d="M260.171 98.5996C259.338 96.1008 258.355 93.2437 255.348 94.2433C252.708 95.0762 245.003 99.874 244.412 101.523C245.33 102.377 246.012 103.453 246.394 104.647L260.171 98.5996Z" fill="#0C4A6E"/>
<path opacity="0.5" d="M260.171 98.5996C259.338 96.1008 258.355 93.2437 255.348 94.2433C252.708 95.0762 245.003 99.874 244.412 101.523C245.33 102.377 246.012 103.453 246.394 104.647L260.171 98.5996Z" fill="#FAFAFA"/>
<path d="M271.757 98.0249C275.613 99.7046 279.367 101.607 283.002 103.722C286.716 105.841 290.259 108.247 293.597 110.919C294.506 111.692 295.36 112.527 296.154 113.418C296.912 114.251 297.595 115.084 298.287 115.867C299.628 117.532 300.885 119.198 302.118 120.864C304.55 124.196 306.808 127.653 308.915 131.226L305.425 133.858L297.029 125.121C295.638 123.671 294.23 122.255 292.864 120.881C292.165 120.206 291.465 119.532 290.765 118.915C290.137 118.341 289.478 117.802 288.791 117.299C287.283 116.275 285.593 115.242 283.927 114.267C282.261 113.293 280.528 112.352 278.779 111.427C275.306 109.611 271.699 107.812 268.209 106.171L271.757 98.0249Z" fill="#DC897C"/>
<path d="M308.732 141.363L306.624 137.606L313.096 135.657C313.096 135.657 314.396 138.689 312.971 141.13L308.732 141.363Z" fill="#E4897B"/>
<path d="M304.251 132.101L308.382 130.76L313.072 135.657L306.625 137.606L304.251 132.101Z" fill="#E4897B"/>
<path d="M267.443 95.7093C272.657 93.6519 284.26 102.606 284.26 102.606L279.945 115.708C275.89 114.823 272.135 112.897 269.05 110.119C263.361 105.147 262.104 97.8416 267.443 95.7093Z" fill="#263238"/>
<path opacity="0.2" d="M274.997 105.555C278.329 108.362 280.137 110.636 280.137 115.125L279.945 115.708C275.888 114.822 272.13 112.896 269.042 110.119C268.709 109.819 268.384 109.511 268.076 109.203L274.997 105.555Z" fill="black"/>
<path d="M288.358 145.519L255.298 151.442C253.957 148.651 251.092 138.656 245.628 126.587C244.153 123.313 242.479 119.923 240.63 116.425C238.519 112.521 236.209 108.729 233.708 105.063C237.156 103.777 240.68 102.709 244.262 101.865C248.426 100.932 261.479 95.9342 265.31 95.5593C270.375 95.0762 270.933 97.2835 270.933 97.2835C270.933 97.2835 277.721 104.422 288.358 145.519Z" fill="#263238"/>
<path opacity="0.2" d="M245.628 126.587C244.153 123.313 242.479 119.923 240.63 116.425L242.779 115.084C242.779 115.084 247.777 122.638 245.628 126.587Z" fill="black"/>
<path d="M204.638 121.805L200.374 121.172L200.865 127.894C200.865 127.894 204.197 128.028 205.938 125.82L204.638 121.805Z" fill="#E4897B"/>
<path d="M194.377 120.689L195.951 126.462L200.865 127.894L200.382 121.172L194.377 120.689Z" fill="#E4897B"/>
<path d="M238.964 112.177C238.856 112.835 238.756 113.318 238.648 113.843C238.539 114.367 238.414 114.909 238.281 115.442C238.023 116.5 237.748 117.541 237.448 118.59C236.826 120.703 236.067 122.774 235.174 124.787C234.252 126.891 233.136 128.904 231.842 130.801C230.405 132.902 228.599 134.725 226.511 136.182C225.336 136.973 224.05 137.587 222.697 138.006L222.172 138.148L221.905 138.223L221.497 138.306C220.991 138.393 220.478 138.429 219.965 138.414C219.134 138.397 218.31 138.265 217.516 138.023C216.27 137.635 215.074 137.104 213.951 136.44C212.961 135.864 212.009 135.224 211.102 134.525C207.723 131.897 204.679 128.865 202.04 125.495L205.113 122.38C208.248 124.677 211.51 126.796 214.884 128.727C215.717 129.169 216.549 129.56 217.291 129.885C217.958 130.183 218.661 130.395 219.381 130.518C219.566 130.553 219.755 130.553 219.94 130.518H219.898L219.998 130.476C220.066 130.455 220.133 130.43 220.198 130.401C220.769 130.167 221.305 129.853 221.789 129.469C222.959 128.494 223.956 127.328 224.737 126.02C225.67 124.527 226.465 122.952 227.111 121.314C227.813 119.594 228.428 117.84 228.952 116.058C229.224 115.159 229.474 114.251 229.702 113.334L230.027 111.968C230.126 111.535 230.235 111.027 230.31 110.677L238.964 112.177Z" fill="#DC897C"/>
<path d="M243.737 111.76C247.527 118.849 235.791 129.843 235.791 129.843L224.171 121.772C225.802 117.14 227.878 112.677 230.368 108.445C235.016 100.824 240.847 106.363 243.737 111.76Z" fill="#263238"/>
<path d="M240.864 281.506L234.108 282.214L233.767 278.299L232.842 267.646L239.597 266.93L240.622 278.699L240.864 281.506Z" fill="#E4897B"/>
<path d="M299.57 280.648H293.023L292.698 279.174L292.656 278.991L290.616 269.537L290.574 269.345L289.791 265.722H296.346L299.57 280.648Z" fill="#E4897B"/>
<path opacity="0.2" d="M239.597 266.93L240.622 278.699L233.767 278.299L232.842 267.646L239.597 266.93Z" fill="black"/>
<path opacity="0.2" d="M299.378 279.824H299.369L292.664 278.991H292.656L290.673 269.87H290.682L297.337 270.386L299.319 279.532L299.378 279.824Z" fill="black"/>
<path d="M292.115 280.257H300.069C300.2 280.256 300.327 280.3 300.429 280.382C300.53 280.464 300.601 280.579 300.627 280.707L301.919 286.537C301.945 286.679 301.941 286.824 301.905 286.964C301.87 287.103 301.804 287.233 301.712 287.344C301.621 287.456 301.506 287.546 301.376 287.608C301.247 287.67 301.105 287.702 300.961 287.703C298.387 287.662 296.513 287.504 293.281 287.504C291.29 287.504 285.285 287.712 282.536 287.712C279.787 287.712 279.429 284.996 280.553 284.746C285.601 283.647 289.399 282.123 291.015 280.673C291.314 280.398 291.708 280.249 292.115 280.257Z" fill="#263238"/>
<path d="M233.392 280.049H241.346C241.477 280.048 241.604 280.092 241.706 280.174C241.807 280.256 241.878 280.371 241.905 280.498L243.196 286.329C243.222 286.471 243.218 286.616 243.182 286.756C243.147 286.895 243.081 287.025 242.989 287.136C242.898 287.247 242.783 287.337 242.654 287.399C242.524 287.461 242.382 287.494 242.238 287.495C239.664 287.454 237.79 287.295 234.558 287.295C232.567 287.295 226.562 287.504 223.813 287.504C221.064 287.504 220.706 284.788 221.831 284.538C226.878 283.439 230.676 281.914 232.292 280.465C232.591 280.19 232.985 280.04 233.392 280.049Z" fill="#263238"/>
<path d="M232.226 275.651L241.888 275.967C238.373 211.364 236.732 208.065 268.084 177.555C268.817 186.784 269.642 196.354 270.45 204.334C270.958 209.273 271.116 213.588 271.932 216.753C277.513 238.151 290.949 276.017 290.949 276.017L300.378 276.442C300.378 276.442 288.575 224.541 287.359 207.624C285.768 185.434 290.949 161.412 288 144.045L255.065 149.634C225.196 193.347 219.723 202.793 232.226 275.651Z" fill="#0C4A6E"/>
<path opacity="0.3" d="M232.226 275.651L241.888 275.967C238.373 211.364 236.732 208.065 268.084 177.555C268.817 186.784 269.642 196.354 270.45 204.334C270.958 209.273 271.116 213.588 271.932 216.753C277.513 238.151 290.949 276.017 290.949 276.017L300.378 276.442C300.378 276.442 288.575 224.541 287.359 207.624C285.768 185.434 290.949 161.412 288 144.045L255.065 149.634C225.196 193.347 219.723 202.793 232.226 275.651Z" fill="white"/>
<path opacity="0.2" d="M268.118 177.513C268.851 186.742 269.675 196.338 270.483 204.317C271.633 192.798 273.115 184.585 273.115 184.585C273.115 184.585 274.473 183.469 278.205 177.513C281.936 171.557 278.205 160.438 278.205 160.438C278.288 170.766 268.118 177.513 268.118 177.513Z" fill="black"/>
<path d="M231.143 274.61L231.618 277.317H242.962V274.818L231.143 274.61Z" fill="#0C4A6E"/>
<path d="M289.832 275.651L290.923 278.15H301.252L301.06 275.651H289.832Z" fill="#0C4A6E"/>
<path opacity="0.7" d="M231.143 274.61L231.618 277.317H242.962V274.818L231.143 274.61Z" fill="white"/>
<path opacity="0.7" d="M289.832 275.651L290.923 278.15H301.252L301.06 275.651H289.832Z" fill="white"/>
<path d="M45.7207 207.791L48.1362 207.982C48.9691 208.04 49.8021 208.074 50.635 208.099C52.3009 208.165 53.9668 208.174 55.6327 208.149C57.2986 208.124 58.9645 207.999 60.5471 207.84C62.1326 207.672 63.7068 207.411 65.2616 207.058L64.5536 207.349C64.8534 207.174 65.1033 207.074 65.4532 206.841C65.803 206.608 66.1195 206.433 66.4777 206.166C67.1774 205.683 67.8854 205.142 68.6017 204.6C70.026 203.484 71.467 202.335 72.8914 201.152L77.1894 197.579L81.5124 193.989C81.8895 193.682 82.3652 193.524 82.8506 193.543C83.336 193.562 83.7979 193.757 84.1499 194.092C84.502 194.426 84.7201 194.878 84.7636 195.362C84.807 195.845 84.6728 196.329 84.386 196.721C83.2366 198.27 82.0288 199.728 80.821 201.21C79.6132 202.693 78.3222 204.101 77.0394 205.517C75.7567 206.933 74.399 208.324 72.983 209.681C72.2583 210.356 71.5337 211.031 70.7507 211.705C70.3842 212.039 69.9178 212.372 69.5013 212.697C69.0848 213.021 68.5101 213.38 68.0186 213.704C67.8904 213.786 67.7535 213.853 67.6105 213.904L67.3106 213.996C65.4566 214.605 63.5608 215.078 61.6383 215.412C59.7662 215.733 57.8783 215.953 55.9826 216.07C54.1084 216.195 52.2343 216.22 50.3685 216.178C49.4356 216.145 48.5027 216.095 47.5698 216.028C46.6202 215.97 45.7373 215.887 44.6961 215.745C43.6413 215.635 42.6735 215.11 42.0057 214.286C41.3379 213.462 41.0248 212.406 41.1353 211.351C41.2457 210.297 41.7707 209.329 42.5947 208.661C43.4187 207.993 44.4742 207.68 45.5291 207.791H45.7207Z" fill="#CE7A63"/>
<path d="M56.6154 219.868L53.9 220.543L50.36 221.376C50.36 221.376 49.6103 220.693 48.4775 219.635C45.6205 216.978 40.3396 211.939 38.6238 209.556C43.4799 206.391 45.7371 207.641 55.0661 207.724C57.4234 210.473 56.6154 219.868 56.6154 219.868Z" fill="#0C4A6E"/>
<path opacity="0.2" d="M53.9003 220.543L50.3603 221.376C50.3603 221.376 49.6106 220.693 48.4778 219.635C48.3552 218.323 48.3302 217.003 48.4028 215.687C50.6716 216.732 52.5833 218.42 53.9003 220.543Z" fill="black"/>
<path d="M19.4829 181.811C19.4829 181.811 23.1312 175.064 32.9516 175.705C42.7721 176.347 46.3371 192.748 43.1386 199.778C35.8074 201.284 28.6999 203.725 21.9901 207.041C21.9901 207.041 14.7351 196.279 15.2265 188.799C15.718 181.32 19.4829 181.811 19.4829 181.811Z" fill="#263238"/>
<path d="M53.8335 248.946L57.815 255.927C68.4851 253.428 102.694 248.222 106.901 259.958C112.123 274.543 74.4157 286.171 53.5087 286.887C32.6017 287.603 14.4102 282.622 27.6124 252.178L53.8335 248.946Z" fill="#263238"/>
<path opacity="0.2" d="M53.8335 248.946L57.815 255.927C68.4851 253.428 102.694 248.222 106.901 259.958C112.123 274.543 74.4157 286.171 53.5087 286.887C32.6017 287.603 14.4102 282.622 27.6124 252.178L53.8335 248.946Z" fill="black"/>
<path d="M100.853 280.582C100.829 280.596 100.802 280.603 100.774 280.603C100.746 280.603 100.719 280.596 100.695 280.582C100.681 280.562 100.674 280.539 100.674 280.515C100.674 280.491 100.681 280.468 100.695 280.448C100.762 280.215 101.453 278.208 102.153 278C102.226 277.982 102.303 277.984 102.376 278.005C102.449 278.025 102.515 278.063 102.569 278.116C102.666 278.197 102.74 278.302 102.784 278.42C102.828 278.539 102.84 278.666 102.819 278.791C102.704 279.168 102.474 279.5 102.161 279.74C101.755 280.064 101.316 280.346 100.853 280.582ZM101.028 280.19C101.681 279.906 102.21 279.398 102.519 278.758C102.535 278.673 102.528 278.585 102.497 278.504C102.466 278.423 102.413 278.352 102.344 278.299C102.324 278.276 102.298 278.258 102.268 278.25C102.239 278.241 102.207 278.241 102.178 278.249C102.119 278.273 102.066 278.307 102.019 278.349C101.581 278.898 101.245 279.522 101.028 280.19Z" fill="#263238"/>
<path d="M100.812 280.607C100.789 280.614 100.765 280.615 100.742 280.607C100.72 280.6 100.7 280.585 100.687 280.565C100.62 280.507 99.6539 279.291 99.8122 278.474C99.8553 278.269 99.9743 278.088 100.145 277.966C100.219 277.896 100.314 277.853 100.416 277.844C100.517 277.835 100.618 277.86 100.703 277.916C101.212 278.274 101.145 279.899 100.895 280.515V280.582C100.87 280.598 100.841 280.606 100.812 280.607ZM100.27 278.216C100.182 278.292 100.12 278.394 100.095 278.508C100.127 279.118 100.355 279.703 100.745 280.174C100.903 279.482 100.853 278.341 100.553 278.133C100.553 278.133 100.462 278.066 100.312 278.174L100.27 278.216Z" fill="#263238"/>
<path d="M64.1369 283.997C64.1528 283.974 64.1741 283.956 64.1989 283.945C64.2238 283.933 64.2512 283.928 64.2785 283.93C64.3029 283.934 64.3253 283.946 64.3419 283.964C64.3586 283.982 64.3686 284.005 64.3702 284.03C64.4285 284.263 64.795 286.354 64.2869 286.879C64.2308 286.931 64.1622 286.967 64.0877 286.985C64.0132 287.002 63.9355 287 63.8621 286.979C63.7379 286.954 63.6225 286.898 63.5274 286.814C63.4323 286.731 63.361 286.624 63.3207 286.504C63.235 286.122 63.2729 285.722 63.4289 285.363C63.6231 284.887 63.8601 284.43 64.1369 283.997ZM64.1369 284.422C63.7042 284.985 63.4884 285.686 63.5289 286.396C63.5521 286.48 63.6003 286.556 63.6672 286.612C63.7341 286.669 63.8166 286.704 63.9037 286.712C63.9279 286.73 63.9571 286.739 63.987 286.739C64.0169 286.739 64.0461 286.73 64.0703 286.712C64.1142 286.667 64.1482 286.613 64.1703 286.554C64.3035 285.849 64.3035 285.126 64.1703 284.422H64.1369Z" fill="#263238"/>
<path d="M77.8141 273.435L69.2181 276.492L65.095 277.966L66.1528 282.481L70.1426 281.623L79.9048 279.549L77.8141 273.435Z" fill="#EBB376"/>
<path d="M67.2771 282.689L66.5524 277.367C66.5433 277.295 66.52 277.227 66.4838 277.165C66.4475 277.103 66.3992 277.049 66.3417 277.006C66.2841 276.964 66.2185 276.933 66.1489 276.916C66.0792 276.899 66.0068 276.897 65.9361 276.908L63.3123 277.35C63.3123 277.35 59.7306 277.683 59.0226 278.599C56.9486 281.281 58.248 293.109 59.6307 293.526C60.1388 293.676 60.6718 292.976 60.8884 292.501C61.5881 290.977 62.8208 286.995 63.3873 285.729C64.0869 284.255 66.011 283.53 66.8773 283.272C67.0037 283.241 67.1141 283.164 67.1878 283.056C67.2614 282.949 67.2932 282.818 67.2771 282.689Z" fill="#0C4A6E"/>
<path d="M64.1617 283.963C64.1813 283.95 64.2045 283.943 64.2284 283.943C64.2522 283.943 64.2755 283.95 64.295 283.963C64.3783 283.963 65.811 284.58 66.0692 285.371C66.1024 285.471 66.1152 285.576 66.1066 285.68C66.098 285.785 66.0683 285.887 66.0192 285.979C65.9895 286.076 65.9281 286.159 65.845 286.217C65.7619 286.274 65.6619 286.302 65.5611 286.296C64.9447 286.221 64.2117 284.771 64.1284 284.113V284.047C64.1284 284.047 64.1367 283.972 64.1617 283.963ZM65.8276 285.779C65.8651 285.671 65.8651 285.554 65.8276 285.446C65.661 284.946 64.8614 284.497 64.4533 284.297C64.6448 284.98 65.2446 285.963 65.6027 285.963C65.6027 285.963 65.7193 285.963 65.7943 285.813V285.754L65.8276 285.779Z" fill="#263238"/>
<path opacity="0.2" d="M77.8138 273.435L69.2178 276.492L70.1423 281.623L79.9045 279.549L77.8138 273.435Z" fill="black"/>
<path d="M71.667 282.398L74.1408 282.581L72.4833 274.076L69.6846 275.626L71.667 282.398Z" fill="#0C4A6E"/>
<path opacity="0.6" d="M71.667 282.398L74.1408 282.581L72.4833 274.076L69.6846 275.626L71.667 282.398Z" fill="white"/>
<path opacity="0.2" d="M35.825 249.363L48.694 263.598C48.694 263.598 62.9207 263.29 80.196 271.727C80.196 271.727 98.7374 264.073 100.437 257.709C102.669 249.38 57.8147 255.893 57.8147 255.893L35.825 249.363Z" fill="black"/>
<path d="M58.3313 252.545L56.7321 251.395C56.4369 251.18 56.0945 251.04 55.7336 250.985C55.3727 250.929 55.0039 250.962 54.658 251.079L51.3762 252.187C50.7291 252.404 50.1433 252.772 49.668 253.262C49.1927 253.752 48.8416 254.349 48.6442 255.002L48.3943 255.835C50.8931 257.926 55.1828 258.334 55.1828 258.334L56.3822 258.584C56.6279 258.643 56.8829 258.653 57.1323 258.612C57.3818 258.572 57.6208 258.483 57.8355 258.35C58.0501 258.216 58.2362 258.042 58.3828 257.836C58.5294 257.63 58.6336 257.397 58.6895 257.151L59.2226 254.777C59.3056 254.359 59.2656 253.925 59.1075 253.529C58.9493 253.133 58.6797 252.791 58.3313 252.545Z" fill="#CE7A63"/>
<path d="M92.2491 257.684V259.8C92.2491 260.341 91.6078 260.566 91.0747 260.566H48.8193C48.2779 260.566 47.6199 260.341 47.6199 259.8V257.684H92.2491Z" fill="#263238"/>
<path opacity="0.4" d="M92.2491 257.684V259.8C92.2491 260.341 91.6078 260.566 91.0747 260.566H48.8193C48.2779 260.566 47.6199 260.341 47.6199 259.8V257.684H92.2491Z" fill="white"/>
<path opacity="0.2" d="M92.2489 257.684V259.8C92.2489 260.341 91.6075 260.566 91.0744 260.566H63.2123C62.6709 260.566 62.0212 260.341 62.0212 259.8V257.684H92.2489Z" fill="black"/>
<path d="M99.3125 235.736L94.3148 258.55C94.2203 258.92 94.0052 259.248 93.7035 259.482C93.4018 259.716 93.0307 259.842 92.649 259.841H65.1617C64.9907 259.837 64.8229 259.794 64.6715 259.714C64.5202 259.634 64.3893 259.52 64.2893 259.382C64.1892 259.243 64.1227 259.083 64.0948 258.914C64.067 258.745 64.0787 258.572 64.1289 258.409L69.1266 235.769C69.2298 235.418 69.453 235.113 69.7574 234.91C70.0618 234.706 70.4281 234.615 70.7924 234.653H98.2797C99.0293 234.653 99.4791 234.986 99.3125 235.736Z" fill="#263238"/>
<path opacity="0.4" d="M99.3124 235.736L94.3147 258.55C94.2202 258.92 94.0051 259.248 93.7034 259.482C93.4017 259.716 93.0306 259.842 92.6488 259.841H66.1112C65.9394 259.839 65.7707 259.796 65.6182 259.717C65.4658 259.637 65.3339 259.524 65.2329 259.385C65.1319 259.246 65.0646 259.085 65.0364 258.916C65.0081 258.747 65.0196 258.573 65.07 258.409L70.0677 235.769C70.1709 235.418 70.3941 235.113 70.6985 234.91C71.0029 234.706 71.3692 234.615 71.7336 234.653H98.2796C99.0292 234.653 99.479 234.986 99.3124 235.736Z" fill="white"/>
<path opacity="0.2" d="M85.7688 247.33C85.7688 249.28 83.6781 250.871 82.1371 250.871C80.5962 250.871 79.6966 249.28 80.1297 247.33C80.5629 245.381 82.0955 243.849 83.6031 243.79C83.1617 245.748 84.1029 247.33 85.6272 247.33H85.7688Z" fill="black"/>
<path d="M83.7778 283.205L92.7737 284.688L97.0966 285.404L98.3544 280.94L94.4479 279.749L84.9023 276.842L83.7778 283.205Z" fill="#EBB376"/>
<path d="M97.4717 280.207L95.5309 285.205C95.5057 285.271 95.4938 285.341 95.4961 285.412C95.4984 285.483 95.5148 285.552 95.5442 285.617C95.5737 285.681 95.6157 285.739 95.6677 285.787C95.7198 285.835 95.7809 285.872 95.8474 285.896L98.3463 286.787C98.3463 286.787 101.678 288.22 102.711 287.762C105.826 286.421 110.416 275.451 109.374 274.435C109.008 274.051 108.2 274.435 107.775 274.718C106.426 275.709 103.419 278.599 102.286 279.416C100.953 280.365 98.9543 280.074 98.0464 279.882C97.928 279.864 97.807 279.886 97.7027 279.945C97.5984 280.004 97.517 280.096 97.4717 280.207Z" fill="#0C4A6E"/>
<path opacity="0.2" d="M83.7778 283.205L92.7737 284.688L94.4479 279.749L84.9023 276.842L83.7778 283.205Z" fill="black"/>
<path d="M92.8985 278.816C92.8985 278.816 56.2489 258.192 43.5464 258.775C30.844 259.358 29.0615 270.528 34.2841 277.508C39.5067 284.488 49.1522 286.196 49.1522 286.196C49.1522 286.196 42.5886 276.917 43.5381 274.31C44.4877 271.702 48.2026 275.342 48.2026 275.342C48.2026 275.342 71.2836 282.797 91.5158 284.505L92.8985 278.816Z" fill="#263238"/>
<path d="M93.49 278.249L91.416 276.85L88.7422 285.046H91.949L93.49 278.249Z" fill="#0C4A6E"/>
<path opacity="0.6" d="M93.49 278.249L91.416 276.85L88.7422 285.046H91.949L93.49 278.249Z" fill="white"/>
<path d="M53.8336 248.946L27.6125 252.178C27.4673 249.424 27.1164 246.684 26.563 243.982C25.7417 240.146 24.6705 236.367 23.3561 232.671C22.1234 229.122 20.5574 225.082 18.575 220.376C18.19 219.542 17.9965 218.631 18.0089 217.712C18.0212 216.793 18.239 215.888 18.6462 215.064C19.0535 214.24 19.64 213.517 20.3627 212.949C21.0854 212.381 21.926 211.982 22.823 211.78C23.8559 211.555 24.9387 211.331 26.0632 211.131C29.9945 210.365 33.9746 209.875 37.9743 209.665C39.2821 209.623 40.6398 209.623 41.9475 209.665C46.6536 209.74 50.7434 214.662 51.4597 219.252C52.154 222.779 52.6076 226.35 52.8174 229.939C53.2589 235.144 53.5338 240.317 53.8336 248.946Z" fill="#0C4A6E"/>
<path d="M25.2468 197.62C26.7628 201.327 28.8951 208.19 26.7211 211.047C26.7211 211.047 30.2862 210.056 38.574 213.871C40.4148 210.398 38.6323 209.581 38.6323 209.581C34.151 209.098 33.6346 205.95 33.7929 202.918L25.2468 197.62Z" fill="#CE7A63"/>
<path d="M36.8329 213.113C34.3341 213.788 34.0176 217.719 34.0176 217.719C34.0176 217.719 27.354 214.163 25.0884 211.356C25.8011 210.838 26.4852 210.282 27.1374 209.69C27.1374 209.69 35.1754 211.83 36.8329 213.113Z" fill="white"/>
<path d="M39.1988 212.413C39.1988 212.413 41.4645 212.73 42.6389 215.745C42.5306 210.089 39.7986 209.465 39.7986 209.465C39.0546 209.158 38.2227 209.14 37.4663 209.415C38.0561 209.639 38.5506 210.059 38.8663 210.606C39.1819 211.152 39.2994 211.79 39.1988 212.413Z" fill="white"/>
<path opacity="0.2" d="M28.7366 199.778L33.7926 202.901C33.7422 203.615 33.7589 204.331 33.8426 205.042C32.1767 205.042 29.5695 203.509 29.0531 201.835C28.8223 201.174 28.715 200.477 28.7366 199.778Z" fill="black"/>
<path d="M21.0319 190.34C22.956 196.379 23.639 198.97 27.5372 201.502C33.3678 205.308 40.3979 202.052 40.3229 195.671C40.248 189.915 37.1161 180.995 30.4858 179.745C29.0727 179.427 27.6002 179.492 26.2209 179.935C24.8415 180.377 23.6056 181.18 22.6412 182.261C21.6768 183.342 21.019 184.661 20.7361 186.081C20.4531 187.502 20.5552 188.972 21.0319 190.34Z" fill="#CE7A63"/>
<path d="M29.0615 190.39C29.1948 190.907 29.578 191.273 29.8945 191.223C30.211 191.173 30.3859 190.682 30.2443 190.174C30.1027 189.666 29.7196 189.291 29.4114 189.341C29.1032 189.391 28.9199 189.882 29.0615 190.39Z" fill="#263238"/>
<path d="M35.4837 188.908C35.6253 189.424 36.0084 189.791 36.3166 189.741C36.6248 189.691 36.7997 189.199 36.6664 188.691C36.5332 188.183 36.1417 187.808 35.8335 187.858C35.5253 187.908 35.3504 188.4 35.4837 188.908Z" fill="#263238"/>
<path d="M35.7253 187.916L36.8498 187.317C36.8498 187.317 36.4583 188.408 35.7253 187.916Z" fill="#263238"/>
<path d="M33.8176 190.432C34.5926 191.517 35.5022 192.5 36.5247 193.356C36.3093 193.595 36.042 193.783 35.7433 193.904C35.4446 194.025 35.1222 194.077 34.8005 194.055L33.8176 190.432Z" fill="#BA4D3C"/>
<path d="M32.3936 196.537C32.6732 196.529 32.9517 196.498 33.2266 196.446C33.2463 196.442 33.2651 196.434 33.2816 196.423C33.2981 196.411 33.3119 196.396 33.3222 196.379C33.3324 196.361 33.3389 196.342 33.341 196.322C33.3432 196.302 33.3411 196.282 33.3348 196.263C33.3306 196.233 33.3183 196.204 33.2992 196.181C33.2801 196.157 33.255 196.14 33.2266 196.129C32.5783 196.262 31.9085 196.247 31.2668 196.086C30.6251 195.924 30.0281 195.62 29.5199 195.196C29.5052 195.182 29.4877 195.17 29.4684 195.162C29.4491 195.154 29.4284 195.149 29.4075 195.149C29.3866 195.149 29.3659 195.154 29.3466 195.162C29.3273 195.17 29.3098 195.182 29.295 195.196C29.2675 195.226 29.2522 195.264 29.2522 195.305C29.2522 195.345 29.2675 195.384 29.295 195.413C30.1558 196.154 31.2581 196.554 32.3936 196.537Z" fill="#263238"/>
<path d="M27.2292 187.358C27.2701 187.355 27.3099 187.342 27.3458 187.322C27.3816 187.302 27.4129 187.275 27.4374 187.242C27.6455 186.927 27.929 186.669 28.2621 186.492C28.5953 186.314 28.9674 186.223 29.3448 186.226C29.3843 186.23 29.4244 186.227 29.4623 186.214C29.5002 186.202 29.535 186.182 29.5643 186.155C29.5937 186.128 29.6168 186.095 29.6321 186.058C29.6474 186.022 29.6545 185.982 29.653 185.942C29.6497 185.859 29.6168 185.78 29.5603 185.719C29.5038 185.658 29.4274 185.619 29.3448 185.609C28.8668 185.6 28.394 185.71 27.9693 185.93C27.5446 186.149 27.1814 186.471 26.9126 186.867C26.8703 186.937 26.8562 187.021 26.8732 187.102C26.8902 187.182 26.9371 187.253 27.0043 187.3C27.0691 187.347 27.1495 187.368 27.2292 187.358Z" fill="#263238"/>
<path d="M37.2164 185.001C37.255 185.003 37.2935 184.996 37.3294 184.982C37.3653 184.967 37.3977 184.946 37.4246 184.918C37.4816 184.86 37.5135 184.782 37.5135 184.701C37.5135 184.62 37.4816 184.542 37.4246 184.485C37.0842 184.117 36.6637 183.833 36.1957 183.653C35.7277 183.474 35.2248 183.405 34.7259 183.452C34.6868 183.457 34.6494 183.471 34.6162 183.493C34.583 183.514 34.5547 183.542 34.5334 183.575C34.5121 183.609 34.4981 183.646 34.4925 183.685C34.4869 183.724 34.4898 183.764 34.501 183.802C34.519 183.883 34.5665 183.954 34.6343 184.002C34.7021 184.049 34.7852 184.07 34.8675 184.06C35.2628 184.028 35.6602 184.086 36.0296 184.231C36.399 184.375 36.7308 184.601 36.9998 184.893C37.0587 184.951 37.1345 184.989 37.2164 185.001Z" fill="#263238"/>
<path d="M29.2698 189.399L30.3943 188.799C30.3943 188.799 30.0278 189.891 29.2698 189.399Z" fill="#263238"/>
<path d="M23.2311 193.714C23.2311 193.714 27.071 188.841 24.5805 183.269C24.5805 183.269 32.2519 177.863 37.6744 185.609C37.6744 185.609 36.6082 178.113 28.2788 178.621C19.9493 179.129 13.1358 192.223 24.164 198.237L23.2311 193.714Z" fill="#263238"/>
<path d="M20.2741 195.771C20.7216 196.266 21.2624 196.668 21.8656 196.954C22.4687 197.24 23.1224 197.404 23.7891 197.437C25.505 197.487 25.8465 195.721 24.9302 194.205C24.0973 192.847 22.2065 191.182 20.6905 191.848C19.1746 192.514 19.1246 194.513 20.2741 195.771Z" fill="#CE7A63"/>
<path d="M39.4071 188.983C39.3748 188.983 39.3429 188.975 39.315 188.959C39.2871 188.943 39.2642 188.919 39.2488 188.891C33.6098 178.896 24.389 183.394 23.9976 183.593C23.9551 183.611 23.9078 183.611 23.8648 183.595C23.8219 183.579 23.7865 183.548 23.7656 183.507C23.7447 183.466 23.7398 183.419 23.7519 183.375C23.764 183.331 23.7922 183.293 23.831 183.269C23.9309 183.219 33.7514 178.437 39.5653 188.716C39.5863 188.758 39.5902 188.807 39.5762 188.852C39.5622 188.897 39.5315 188.935 39.4904 188.958C39.4655 188.974 39.4366 188.982 39.4071 188.983Z" fill="#263238"/>
<path d="M88.7424 192.606L88.4093 194.272C88.349 194.585 88.2148 194.879 88.0177 195.13C87.8207 195.38 87.5665 195.58 87.2764 195.713L84.5194 196.962C83.9763 197.207 83.3828 197.32 82.7876 197.291C82.1925 197.262 81.6127 197.092 81.096 196.796L80.4463 196.412C80.8045 193.572 83.2783 190.765 83.2783 190.765L83.8947 189.882C84.0164 189.699 84.1733 189.541 84.3563 189.418C84.5394 189.296 84.7449 189.211 84.961 189.168C85.1772 189.126 85.3996 189.126 85.6155 189.17C85.8313 189.214 86.0363 189.3 86.2186 189.424L87.9761 190.624C88.2844 190.842 88.5216 191.147 88.6578 191.499C88.7941 191.852 88.8235 192.237 88.7424 192.606Z" fill="#CE7A63"/>
<path opacity="0.2" d="M26.5628 243.982C25.7415 240.146 24.6703 236.367 23.356 232.671C25.6299 228.131 27.8955 224.275 27.8955 224.275C27.8955 224.275 36.0084 235.927 26.5628 243.982Z" fill="black"/>
<path d="M25.8632 223.483L26.4546 225.832C26.6712 226.665 26.9044 227.44 27.146 228.248C27.6208 229.847 28.1538 231.438 28.7036 233.004C29.2533 234.57 29.8947 236.111 30.5694 237.568C31.2389 239.015 31.9898 240.422 32.8183 241.783L32.3103 241.208C32.5768 241.425 32.7517 241.641 33.0849 241.891C33.4181 242.141 33.6846 242.383 34.0511 242.641C34.7341 243.149 35.4671 243.657 36.2168 244.157C37.7244 245.148 39.2737 246.148 40.8563 247.114L45.6207 250.046L50.4018 252.995C50.813 253.253 51.1158 253.653 51.2536 254.119C51.3914 254.585 51.3549 255.085 51.1508 255.526C50.9466 255.967 50.5889 256.318 50.1445 256.515C49.7001 256.711 49.1994 256.739 48.736 256.593C46.9035 255.993 45.1376 255.318 43.3468 254.644C41.556 253.969 39.8068 253.211 38.0576 252.445C36.3084 251.678 34.5509 250.846 32.8183 249.946C31.9854 249.479 31.0775 249.005 30.1862 248.48C29.7531 248.238 29.2867 247.905 28.8452 247.647C28.4037 247.389 27.8873 246.931 27.4125 246.564C27.2975 246.471 27.194 246.365 27.1043 246.248L26.9128 245.989C25.7447 244.426 24.6897 242.781 23.7559 241.067C22.8544 239.395 22.0425 237.677 21.3237 235.919C20.6074 234.178 19.9826 232.412 19.4329 230.63C19.1664 229.739 18.9081 228.839 18.6666 227.931C18.425 227.023 18.2251 226.157 18.0252 225.124C17.8199 224.101 18.0226 223.039 18.5899 222.163C19.1573 221.288 20.0445 220.668 21.062 220.438C22.0795 220.208 23.1468 220.384 24.0361 220.93C24.9254 221.475 25.5661 222.347 25.8216 223.358L25.8632 223.483Z" fill="#CE7A63"/>
<path d="M20.782 212.647C16.2174 215.637 15.8509 220.335 17.9416 229.422C21.0985 231.146 28.9782 229.381 28.9782 229.381C28.9782 229.381 27.0041 215.287 20.782 212.647Z" fill="#0C4A6E"/>
</svg>
